<svg width="400" height="400" viewBox="0 0 400 400" fill="none" xmlns="http://www.w3.org/2000/svg">
<rect width="400" height="400" fill="white"/>
<rect x="20" y="20" width="360" height="360" fill="#F5F5F8"/>
<mask id="mask0" mask-type="alpha" maskUnits="userSpaceOnUse" x="20" y="20" width="360" height="360">
<rect x="20" y="20" width="360" height="360" fill="white"/>
</mask>
<g mask="url(#mask0)">
<path fill-rule="evenodd" clip-rule="evenodd" d="M330.964 338.235C320.352 322.884 304.707 311.726 286.737 306.692L245 295V265.001C262.644 251.747 274.231 230.89 274.943 207.297C277.409 208.384 280.131 209 283.001 209C294.046 209 303.001 200.046 303.001 189C303.001 177.954 294.046 169 283.001 169C280.154 169 277.452 169.603 275.001 170.675V165C275.001 123.578 241.422 90.0003 200.001 90.0003H200C158.579 90.0003 125.001 123.578 125.001 165V170.675C122.549 169.603 119.847 169 117.001 169C105.955 169 97.0006 177.954 97.0006 189C97.0006 200.046 105.955 209 117.001 209C119.87 209 122.592 208.385 125.059 207.297C125.77 230.89 137.357 251.747 155 265.001V295L113.264 306.692C95.2936 311.726 79.6486 322.884 69.0366 338.235L40.0006 380.24V410H360.001V380.24L330.964 338.235Z" fill="#B5683C"/>
<path fill-rule="evenodd" clip-rule="evenodd" d="M200 280C190.752 280 181.9 278.316 173.72 275.255C185.354 282.687 199.17 287 214 287C225.06 287 235.549 284.587 245 280.29V265.001C232.465 274.417 216.885 280 200 280Z" fill="#A3420B"/>
<path d="M127.609 191.919C127.864 190.99 128.001 190.011 128.001 189.001C128.001 182.926 123.076 178.001 117.001 178.001C115.482 178.001 114.035 178.309 112.719 178.865" stroke="#00004D" stroke-width="2" stroke-linecap="round" stroke-linejoin="round"/>
<path d="M272.392 191.919C272.137 190.99 272.001 190.011 272.001 189.001C272.001 182.926 276.926 178.001 283.001 178.001C284.519 178.001 285.966 178.309 287.283 178.865" stroke="#00004D" stroke-width="2" stroke-linecap="round" stroke-linejoin="round"/>
<path fill-rule="evenodd" clip-rule="evenodd" d="M220 234.009C220 245.055 211.046 254.009 200 254.009C188.954 254.009 180 245.055 180 234.009H220Z" fill="white"/>
<path fill-rule="evenodd" clip-rule="evenodd" d="M241 192C241 196.418 237.418 200 233 200C228.582 200 225 196.418 225 192C225 187.582 228.582 184 233 184C237.418 184 241 187.582 241 192Z" fill="#00004D"/>
<path fill-rule="evenodd" clip-rule="evenodd" d="M175 192C175 196.418 171.418 200 167 200C162.582 200 159 196.418 159 192C159 187.582 162.582 184 167 184C171.418 184 175 187.582 175 192Z" fill="#00004D"/>
<path d="M200 184L210 218L196 220" stroke="#00004D" stroke-width="2" stroke-linecap="round" stroke-linejoin="round"/>
<path fill-rule="evenodd" clip-rule="evenodd" d="M283 169C285.114 169 287.15 169.334 289.062 169.941C289.904 168.308 290.395 166.462 290.395 164.494C290.395 160.031 287.952 156.145 284.336 154.078C289.679 150.956 293.278 145.175 293.278 138.541C293.278 129.518 286.631 122.066 277.972 120.764C279.347 118.31 280.139 115.484 280.139 112.471C280.139 103.082 272.527 95.4709 263.139 95.4709C259.641 95.4709 256.392 96.5299 253.689 98.3409C253.691 98.2209 253.698 98.1029 253.698 97.9819C253.698 85.8319 243.848 75.9819 231.698 75.9819C226.43 75.9819 221.596 77.8369 217.807 80.9259C214.498 74.4459 207.775 69.9999 200 69.9999C192.225 69.9999 185.502 74.4459 182.193 80.9259C178.404 77.8369 173.57 75.9819 168.302 75.9819C156.152 75.9819 146.302 85.8319 146.302 97.9819C146.302 98.1029 146.309 98.2209 146.311 98.3409C143.608 96.5299 140.359 95.4709 136.861 95.4709C127.473 95.4709 119.861 103.082 119.861 112.471C119.861 115.484 120.653 118.31 122.028 120.764C113.369 122.066 106.722 129.518 106.722 138.541C106.722 145.175 110.321 150.956 115.664 154.078C112.048 156.145 109.605 160.031 109.605 164.494C109.605 166.461 110.094 168.307 110.932 169.943C112.847 169.334 114.884 169 117 169C123.847 169 129.885 172.445 133.49 177.691C143.729 173.821 151.296 164.511 152.662 153.282C155.895 155.015 159.588 156 163.512 156C172.891 156 180.953 150.383 184.533 142.332C188.565 146.152 194.007 148.5 200 148.5C205.993 148.5 211.435 146.152 215.467 142.332C219.047 150.383 227.109 156 236.488 156C240.412 156 244.105 155.015 247.338 153.282C248.704 164.511 256.271 173.821 266.51 177.691C270.115 172.445 276.153 169 283 169Z" fill="#00004D"/>
<path fill-rule="evenodd" clip-rule="evenodd" d="M360 380.24L330.963 338.235C320.352 322.885 304.707 311.726 286.736 306.692L245 295C245 319.853 224.853 340 200 340C175.147 340 155 319.853 155 295L113.263 306.692C95.293 311.726 79.648 322.885 69.036 338.235L40 380.24V410H360V380.24Z" fill="#80C43B"/>
</g>
</svg>
