<svg width="1481" height="745" viewBox="0 0 1481 745" fill="none" xmlns="http://www.w3.org/2000/svg">
<rect x="85.6113" y="174.364" width="131.196" height="131.196" transform="rotate(10.9998 85.6113 174.364)" fill="#FEBA91"/>
<path fill-rule="evenodd" clip-rule="evenodd" d="M95.7669 215.971C96.1023 214.408 97.5975 213.394 99.1564 213.635L99.3298 213.667L190.63 233.267C192.25 233.615 193.281 235.21 192.933 236.83C192.598 238.392 191.103 239.407 189.544 239.165L189.37 239.133L98.0704 219.533C96.4505 219.186 95.4191 217.59 95.7669 215.971Z" fill="#2E186A"/>
<path fill-rule="evenodd" clip-rule="evenodd" d="M92.4668 233.071C92.8019 231.508 94.297 230.493 95.8559 230.735L96.0293 230.767L184.129 249.667C185.749 250.014 186.781 251.609 186.433 253.229C186.098 254.791 184.603 255.806 183.044 255.565L182.871 255.533L94.7708 236.633C93.1508 236.286 92.1192 234.691 92.4668 233.071Z" fill="#2E186A"/>
<path fill-rule="evenodd" clip-rule="evenodd" d="M86.767 250.57C87.1025 249.008 88.5979 247.993 90.1567 248.235L90.3302 248.267L157.83 262.767C159.45 263.115 160.481 264.71 160.133 266.33C159.798 267.892 158.302 268.907 156.743 268.665L156.57 268.633L89.07 254.133C87.4501 253.785 86.419 252.19 86.767 250.57Z" fill="#2E186A"/>
<rect x="0.602051" y="288.77" width="131.2" height="131.2" transform="rotate(-23.6094 0.602051 288.77)" fill="#FEBA91"/>
<path fill-rule="evenodd" clip-rule="evenodd" d="M102.26 294.226C103.792 293.596 105.545 294.328 106.175 295.861C106.782 297.338 106.123 299.021 104.701 299.704L104.54 299.776L47.8403 323.076C46.3078 323.705 44.5549 322.974 43.9252 321.441C43.3179 319.963 43.9767 318.281 45.3986 317.598L45.5597 317.526L102.26 294.226Z" fill="#2E186A"/>
<path fill-rule="evenodd" clip-rule="evenodd" d="M83.6625 327.125C85.1956 326.497 86.9477 327.231 87.576 328.764C88.1818 330.242 87.5213 331.924 86.0987 332.606L85.9375 332.677L59.3375 343.577C57.8044 344.205 56.0523 343.472 55.424 341.939C54.8182 340.46 55.4787 338.778 56.9013 338.097L57.0625 338.025L83.6625 327.125Z" fill="#2E186A"/>
<path fill-rule="evenodd" clip-rule="evenodd" d="M70.4 251.701L69 258.901L119.3 240.201L158.4 322.201L165.5 323.501L122.4 232.301L70.4 251.701Z" fill="white"/>
<path fill-rule="evenodd" clip-rule="evenodd" d="M1417 432.5H899.7C864.6 432.5 836.1 404 836.1 368.9V0H1480.6V368.9C1480.6 404.1 1452.1 432.5 1417 432.5Z" fill="#5D21D1"/>
<path fill-rule="evenodd" clip-rule="evenodd" d="M1190.2 277.799C1190.2 277.799 1166.2 283.999 1160.9 261.699C1160.9 261.699 1179.5 253.599 1190.2 277.799Z" fill="white"/>
<path fill-rule="evenodd" clip-rule="evenodd" d="M1134.9 220.4C1137.6 222.1 1140.6 223.3 1143.6 224.3C1140.7 228.2 1139.3 233.4 1140.3 238.8C1141.3 244.8 1144.9 249.6 1149.4 251.9C1148.2 259.2 1146.1 269.7 1143.7 273.4C1142.5 275.2 1143.2 277.9 1145.2 279.5C1147.2 281 1149.8 280.8 1151 279C1154.5 273.6 1156.9 260.4 1158 253.3C1158.2 253.3 1158.3 253.3 1158.5 253.2C1166.9 251.6 1172.4 242.5 1170.8 232.8C1170.3 229.7 1169 226.9 1167.3 224.6C1176.6 222.2 1185.2 216.9 1191.2 208.9C1204.1 191.6 1199.9 168.7 1181.8 157.7C1163.7 146.7 1138.5 151.8 1125.6 169C1112.6 186.4 1116.8 209.3 1134.9 220.4Z" fill="white"/>
<path fill-rule="evenodd" clip-rule="evenodd" d="M1044.2 388.7L952.4 370.9L924.8 314.8L940.4 234.9L1069.2 259.9L1044.2 388.7Z" fill="#FEBA91"/>
<path fill-rule="evenodd" clip-rule="evenodd" d="M957.446 270.375C957.726 268.802 959.185 267.735 960.751 267.921L960.926 267.947L1036.23 281.347C1037.86 281.638 1038.94 283.195 1038.65 284.827C1038.37 286.399 1036.92 287.466 1035.35 287.28L1035.17 287.254L959.874 273.854C958.243 273.564 957.156 272.007 957.446 270.375Z" fill="white"/>
<path fill-rule="evenodd" clip-rule="evenodd" d="M955.146 283.575C955.426 282.002 956.885 280.935 958.451 281.121L958.626 281.147L1033.93 294.547C1035.56 294.837 1036.64 296.394 1036.35 298.026C1036.07 299.599 1034.62 300.666 1033.05 300.48L1032.87 300.454L957.574 287.054C955.943 286.763 954.856 285.206 955.146 283.575Z" fill="white"/>
<path fill-rule="evenodd" clip-rule="evenodd" d="M953.047 297.472C953.328 295.899 954.788 294.834 956.354 295.021L956.528 295.047L1001.23 303.047C1002.86 303.339 1003.94 304.898 1003.65 306.529C1003.37 308.102 1001.91 309.167 1000.35 308.98L1000.17 308.954L955.471 300.954C953.841 300.662 952.755 299.103 953.047 297.472Z" fill="white"/>
<path fill-rule="evenodd" clip-rule="evenodd" d="M925.26 313.305C925.577 311.739 927.061 310.707 928.622 310.931L928.796 310.961L965.796 318.461C967.382 318.782 968.416 320.298 968.162 321.874L968.129 322.05L957.629 369.45C957.271 371.067 955.669 372.088 954.051 371.73C952.491 371.384 951.486 369.883 951.738 368.325L951.771 368.152L961.61 323.734L927.604 316.841C926.038 316.524 925.006 315.04 925.23 313.479L925.26 313.305Z" fill="white"/>
<path fill-rule="evenodd" clip-rule="evenodd" d="M836.1 67C837.757 67 839.1 68.3431 839.1 70C839.1 71.5977 837.851 72.9037 836.276 72.9949L836.1 73H815.878L815.663 74.7238C815.499 76.004 815.312 77.3858 815.103 78.8643L814.897 80.298C813.747 88.2025 812.218 97.0054 810.261 106.483C804.667 133.568 796.758 160.656 786.124 185.966C770.506 223.14 750.339 253.228 724.982 273.667C694.467 298.265 657.603 307.864 614.057 299.85L608.537 298.838C550.112 288.155 506.104 281.254 459.002 276.218L457.529 276.061C391.625 269.079 332.639 267.681 280.825 273.109C219.809 279.5 170.628 295.244 134.985 321.669C94.9495 351.351 72.473 394.189 69.4959 451.856C66.4419 510.526 75.0922 550.212 93.5153 573.162C108.749 592.14 130.385 599.302 157.061 596.732C175.362 594.968 195.056 588.72 214.96 579.398C223.328 575.48 231.162 571.279 238.238 567.081L239.56 566.291C241.07 565.383 242.467 564.52 243.744 563.712L244.81 563.033C245.361 562.679 245.853 562.358 246.283 562.074L247.105 561.525C248.472 560.589 250.339 560.938 251.275 562.305C252.211 563.672 251.862 565.539 250.495 566.475L249.854 566.906C249.427 567.189 248.938 567.509 248.389 567.864L248.052 568.081C246.096 569.338 243.835 570.736 241.3 572.241C234.065 576.534 226.06 580.825 217.505 584.832C197.031 594.421 176.717 600.866 157.636 602.704C129.095 605.454 105.463 597.632 88.8363 576.918C69.3335 552.622 60.3806 511.549 63.504 451.545C66.5724 392.11 89.9207 347.61 131.412 316.849C168.038 289.695 218.206 273.636 280.2 267.141C332.487 261.664 391.872 263.072 458.161 270.095L461.116 270.411C509.314 275.611 554.428 282.776 615.143 293.95C656.956 301.644 692.052 292.505 721.217 268.996C745.696 249.264 765.328 219.974 780.592 183.642C791.061 158.726 798.864 132 804.385 105.27C806.226 96.3578 807.682 88.0542 808.795 80.5532L808.96 79.434C809.29 77.1652 809.568 75.1101 809.797 73.2852L810.049 71.202L810.215 69.7023C810.362 68.2273 811.561 67.0904 813.023 67.0051L813.2 67H836.1Z" fill="#5D21D1"/>
<path fill-rule="evenodd" clip-rule="evenodd" d="M831.6 78.9998H815C812.5 78.9998 810.5 76.9998 810.5 74.4998V65.7998C810.5 63.2998 812.5 61.2998 815 61.2998H831.6C834.1 61.2998 836.1 63.2998 836.1 65.7998V74.4998C836.1 76.9998 834 78.9998 831.6 78.9998Z" fill="#FE7624"/>
<path fill-rule="evenodd" clip-rule="evenodd" d="M264.7 561.001C273.2 554.001 276.1 510.201 240.4 529.501C204.7 548.801 231.1 576.601 248.6 569.401C266 562.201 264.7 561.001 264.7 561.001Z" fill="#FE7624"/>
<path fill-rule="evenodd" clip-rule="evenodd" d="M369.841 265.391C370.647 267.175 369.907 269.263 368.19 270.153L367.87 270.304L366.671 270.857L364.98 271.651C362.485 272.83 359.588 274.234 356.322 275.858L354.228 276.904C345.782 281.142 336.504 286.031 326.583 291.544L325.339 292.237C293.276 310.128 261.215 330.749 231.307 353.805C171.483 399.924 127.987 449.792 107.735 502.327C82.7956 567.022 94.4496 632.657 149.812 698.847C151.111 700.401 150.905 702.713 149.352 704.012C147.799 705.311 145.487 705.105 144.188 703.552C87.1355 635.341 74.9835 566.901 100.893 499.69C121.713 445.682 166.038 394.863 226.83 347.998C257.049 324.702 289.408 303.889 321.766 285.834L324.27 284.442C334.23 278.929 343.537 274.046 352.003 269.818L353.057 269.292C355.658 267.999 358.031 266.843 360.159 265.824L362.929 264.512L364.991 263.558C366.837 262.725 369.008 263.545 369.841 265.391Z" fill="#5D21D1"/>
<path fill-rule="evenodd" clip-rule="evenodd" d="M151 708.7C160.2 714.7 202.8 704.4 173.8 676.1C144.8 647.7 126 681.2 138.1 695.8C150.3 710.3 151 708.7 151 708.7Z" fill="#FE7624"/>
<path fill-rule="evenodd" clip-rule="evenodd" d="M405.3 282.499H365C357.7 282.499 351.7 276.599 351.7 269.199V269.199C351.7 261.899 357.6 255.899 365 255.899H405.3C412.6 255.899 418.6 261.799 418.6 269.199V269.199C418.6 276.599 412.6 282.499 405.3 282.499Z" fill="#FE7624"/>
<path fill-rule="evenodd" clip-rule="evenodd" d="M1304.5 688.299L1264 675.599C1243.3 669.099 1231.8 647.199 1238.3 626.499L1278.4 498.399C1284.9 477.699 1306.8 466.199 1327.5 472.699L1368 485.399C1388.7 491.899 1400.2 513.799 1393.7 534.499L1353.6 662.599C1347.2 683.299 1325.2 694.799 1304.5 688.299Z" fill="white"/>
<path fill-rule="evenodd" clip-rule="evenodd" d="M1275.54 497.5L1235.44 625.603C1228.45 647.868 1240.81 671.461 1263.1 678.461L1303.6 691.162C1325.89 698.161 1349.58 685.769 1356.47 663.485L1396.56 535.395C1403.55 513.131 1391.19 489.538 1368.9 482.537L1328.4 469.837C1306.13 462.845 1282.54 475.206 1275.54 497.5ZM1326.6 475.561L1367.1 488.262C1386.24 494.27 1396.84 514.498 1390.84 533.6L1350.74 661.703C1344.83 680.817 1324.52 691.442 1305.4 685.437L1264.9 672.737C1245.76 666.728 1235.16 646.5 1241.16 627.398L1281.26 499.295C1287.27 480.161 1307.5 469.563 1326.6 475.561Z" fill="#2E186A"/>
<path fill-rule="evenodd" clip-rule="evenodd" d="M1291.8 612.899C1291.8 612.899 1300.8 612.699 1300.8 620.999C1300.8 620.999 1293.5 622.399 1291.8 612.899Z" fill="#2E186A"/>
<path fill-rule="evenodd" clip-rule="evenodd" d="M1306.6 637.799C1305.8 636.999 1304.8 636.299 1303.9 635.699C1305.2 634.599 1306.2 632.799 1306.3 630.799C1306.4 628.599 1305.6 626.599 1304.2 625.399C1305.2 622.899 1306.8 619.399 1308 618.299C1308.6 617.799 1308.6 616.699 1308 615.999C1307.4 615.299 1306.5 615.099 1305.9 615.699C1304.2 617.299 1302.3 621.799 1301.3 624.199C1301.2 624.199 1301.2 624.199 1301.1 624.199C1298 624.099 1295.3 626.799 1295.1 630.399C1295 631.599 1295.3 632.599 1295.7 633.599C1292.2 633.699 1288.7 634.899 1286 637.199C1280 642.199 1279.6 650.699 1285.1 656.099C1290.6 661.499 1299.9 661.799 1305.9 656.699C1311.7 651.599 1312.1 643.199 1306.6 637.799Z" fill="#2E186A"/>
<rect x="449.089" y="433.732" width="267.306" height="315.507" transform="rotate(-9.43312 449.089 433.732)" fill="#2E186A"/>
<rect x="384.352" y="454.494" width="245.897" height="290.197" transform="rotate(-21.4386 384.352 454.494)" fill="white"/>
<path fill-rule="evenodd" clip-rule="evenodd" d="M612.139 361.826L383.256 451.702C381.713 452.308 380.954 454.049 381.56 455.591L487.628 725.709C488.233 727.252 489.975 728.011 491.517 727.405L720.4 637.529C721.943 636.923 722.702 635.182 722.096 633.64L616.028 363.522C615.423 361.98 613.682 361.22 612.139 361.826ZM611.539 368.507L715.414 633.041L492.116 720.724L388.241 456.191L611.539 368.507Z" fill="#2E186A"/>
<path fill-rule="evenodd" clip-rule="evenodd" d="M413.842 486.672C416.176 485.756 418.81 486.906 419.726 489.24C420.615 491.506 419.558 494.054 417.361 495.04L417.159 495.125L374.859 511.725C372.524 512.641 369.89 511.491 368.974 509.157C368.085 506.892 369.142 504.343 371.339 503.358L371.542 503.272L413.842 486.672Z" fill="#2E186A"/>
<path fill-rule="evenodd" clip-rule="evenodd" d="M431.433 531.477C433.765 530.556 436.402 531.7 437.323 534.032C438.216 536.296 437.165 538.847 434.97 539.837L434.767 539.922L392.467 556.622C390.135 557.543 387.498 556.399 386.577 554.067C385.684 551.803 386.735 549.252 388.93 548.262L389.133 548.177L431.433 531.477Z" fill="#2E186A"/>
<path fill-rule="evenodd" clip-rule="evenodd" d="M449.041 576.374C451.376 575.458 454.01 576.607 454.926 578.941C455.815 581.207 454.758 583.755 452.561 584.741L452.358 584.826L410.058 601.426C407.724 602.342 405.09 601.192 404.174 598.858C403.285 596.593 404.342 594.044 406.539 593.059L406.741 592.974L449.041 576.374Z" fill="#2E186A"/>
<path fill-rule="evenodd" clip-rule="evenodd" d="M466.642 621.172C468.976 620.256 471.61 621.406 472.526 623.74C473.415 626.006 472.359 628.554 470.161 629.54L469.959 629.625L427.659 646.225C425.325 647.141 422.69 645.991 421.774 643.657C420.885 641.392 421.942 638.843 424.139 637.858L424.342 637.772L466.642 621.172Z" fill="#2E186A"/>
<path fill-rule="evenodd" clip-rule="evenodd" d="M484.336 665.975C486.669 665.056 489.305 666.203 490.224 668.536C491.116 670.8 490.062 673.35 487.867 674.338L487.664 674.424L445.264 691.124C442.931 692.042 440.295 690.896 439.376 688.563C438.484 686.299 439.538 683.749 441.734 682.761L441.936 682.675L484.336 665.975Z" fill="#2E186A"/>
<path fill-rule="evenodd" clip-rule="evenodd" d="M542.304 475.806C543.846 475.2 545.587 475.96 546.192 477.502C546.776 478.989 546.091 480.661 544.659 481.322L544.496 481.391L463.496 513.191C461.954 513.796 460.213 513.037 459.607 511.495C459.024 510.008 459.709 508.336 461.141 507.675L461.304 507.606L542.304 475.806Z" fill="#FE7624"/>
<path fill-rule="evenodd" clip-rule="evenodd" d="M580.405 477.305C581.947 476.701 583.688 477.461 584.293 479.003C584.876 480.491 584.19 482.163 582.757 482.822L582.595 482.891L501.495 514.691C499.953 515.296 498.212 514.536 497.607 512.994C497.024 511.506 497.71 509.834 499.143 509.175L499.305 509.105L580.405 477.305Z" fill="#FE7624"/>
<path fill-rule="evenodd" clip-rule="evenodd" d="M483.7 515.208C485.242 514.6 486.984 515.358 487.591 516.899C488.177 518.386 487.493 520.059 486.062 520.721L485.9 520.79L469.4 527.29C467.858 527.897 466.116 527.14 465.509 525.598C464.923 524.112 465.607 522.439 467.038 521.777L467.2 521.708L483.7 515.208Z" fill="#FE7624"/>
<path fill-rule="evenodd" clip-rule="evenodd" d="M515.198 561.408C516.739 560.799 518.482 561.555 519.09 563.096C519.677 564.582 518.995 566.255 517.564 566.919L517.402 566.988L489.302 578.088C487.761 578.697 486.019 577.941 485.41 576.4C484.823 574.914 485.505 573.241 486.936 572.577L487.098 572.508L515.198 561.408Z" fill="#FE7624"/>
<path fill-rule="evenodd" clip-rule="evenodd" d="M530.802 536.607C532.344 536.001 534.086 536.759 534.692 538.301C535.277 539.788 534.592 541.461 533.16 542.122L532.998 542.191L482.898 561.891C481.356 562.497 479.614 561.739 479.008 560.197C478.423 558.71 479.108 557.038 480.54 556.377L480.702 556.307L530.802 536.607Z" fill="#FE7624"/>
<path fill-rule="evenodd" clip-rule="evenodd" d="M501.706 527.106C503.249 526.502 504.99 527.263 505.594 528.806C506.176 530.293 505.489 531.965 504.056 532.624L503.894 532.693L475.794 543.693C474.251 544.297 472.51 543.536 471.906 541.993C471.324 540.505 472.011 538.834 473.444 538.175L473.606 538.106L501.706 527.106Z" fill="#FE7624"/>
<path fill-rule="evenodd" clip-rule="evenodd" d="M560.902 503.806C562.444 503.2 564.186 503.959 564.792 505.501C565.377 506.988 564.692 508.66 563.26 509.321L563.098 509.39L516.298 527.79C514.756 528.397 513.014 527.638 512.408 526.096C511.823 524.609 512.508 522.937 513.94 522.276L514.102 522.206L560.902 503.806Z" fill="#FE7624"/>
<path fill-rule="evenodd" clip-rule="evenodd" d="M622.2 453.998L617 473.198L617.5 654.298H628L627.5 473.098L622.2 453.998Z" fill="#FE7624"/>
<path fill-rule="evenodd" clip-rule="evenodd" d="M635.538 601.073C637.15 601.04 638.493 602.273 638.617 603.859L638.626 604.037L639.526 647.937C639.56 649.574 638.288 650.929 636.674 651.021L636.5 651.026H617.5C615.828 651.026 614.473 649.671 614.473 647.999C614.473 646.387 615.733 645.069 617.322 644.977L617.5 644.972L633.41 644.972L632.574 604.161C632.541 602.549 633.774 601.206 635.36 601.082L635.538 601.073Z" fill="#5D21D1"/>
<path fill-rule="evenodd" clip-rule="evenodd" d="M619.5 535.599H625.3C627.8 535.599 629.8 533.599 629.8 531.199L630.1 487.299C630.1 484.799 628.1 482.799 625.7 482.799H619.9C617.4 482.799 615.4 484.799 615.4 487.199L615.1 531.099C615.1 533.599 617.1 535.599 619.5 535.599Z" fill="#5D21D1"/>
<path fill-rule="evenodd" clip-rule="evenodd" d="M623.078 582.872C624.689 582.913 625.974 584.207 626.025 585.797L626.026 585.975L625.426 609.375C625.383 611.046 623.993 612.366 622.322 612.323C620.711 612.282 619.426 610.989 619.375 609.398L619.374 609.22L619.974 585.82C620.017 584.149 621.407 582.829 623.078 582.872Z" fill="#5D21D1"/>
<path fill-rule="evenodd" clip-rule="evenodd" d="M570.4 412.398L567.8 431.998L592.4 611.498L602.8 610.098L578.2 430.598L570.4 412.398Z" fill="#FE7624"/>
<path fill-rule="evenodd" clip-rule="evenodd" d="M543.8 166.9L472.9 176.3C463.1 177.6 454.1 170.7 452.8 160.9L452.6 159.3C451.3 149.5 458.2 140.5 468 139.2L538.9 129.8L543.8 166.9Z" fill="white"/>
<path fill-rule="evenodd" clip-rule="evenodd" d="M538.506 126.826L467.606 136.226C456.277 137.729 448.271 148.042 449.583 159.348L449.823 161.272C451.344 172.738 461.853 180.792 473.295 179.274L544.194 169.874C545.836 169.656 546.991 168.149 546.774 166.507L541.874 129.407C541.657 127.764 540.149 126.608 538.506 126.826ZM536.318 133.168L540.432 164.32L472.506 173.326C464.35 174.408 456.856 168.665 455.774 160.506L455.577 158.928C454.492 150.75 460.235 143.257 468.395 142.174L536.318 133.168Z" fill="#2E186A"/>
<path fill-rule="evenodd" clip-rule="evenodd" d="M618.7 226.3C670.339 226.3 712.2 184.438 712.2 132.8C712.2 81.1612 670.339 39.2998 618.7 39.2998C567.061 39.2998 525.2 81.1612 525.2 132.8C525.2 184.438 567.061 226.3 618.7 226.3Z" fill="white"/>
<path fill-rule="evenodd" clip-rule="evenodd" d="M618.7 36.2998C565.405 36.2998 522.2 79.5043 522.2 132.8C522.2 186.095 565.405 229.3 618.7 229.3C671.996 229.3 715.2 186.095 715.2 132.8C715.2 79.5043 671.996 36.2998 618.7 36.2998ZM618.7 42.2998C668.682 42.2998 709.2 82.818 709.2 132.8C709.2 182.782 668.682 223.3 618.7 223.3C568.718 223.3 528.2 182.782 528.2 132.8C528.2 82.818 568.718 42.2998 618.7 42.2998Z" fill="#2E186A"/>
<path fill-rule="evenodd" clip-rule="evenodd" d="M618.7 198.9C655.206 198.9 684.8 169.306 684.8 132.8C684.8 96.2942 655.206 66.7002 618.7 66.7002C582.194 66.7002 552.6 96.2942 552.6 132.8C552.6 169.306 582.194 198.9 618.7 198.9Z" fill="#FE7624"/>
<path fill-rule="evenodd" clip-rule="evenodd" d="M842.5 600L842.3 499.1C842.3 490.5 849.2 483.5 857.8 483.5L1114.2 483C1122.8 483 1129.8 489.9 1129.8 498.5L1130 599.4C1130 608 1123.1 615 1114.5 615L858.1 615.5C849.5 615.5 842.5 608.6 842.5 600Z" fill="#FE7624"/>
<path fill-rule="evenodd" clip-rule="evenodd" d="M1108.3 487.699L863.4 488.199C855.496 488.199 849.1 494.79 849.1 502.899L849.3 594.006C849.3 602.028 855.715 608.599 863.6 608.599L1108.51 608.099C1116.36 608.226 1122.7 601.648 1122.7 593.499V571.299L1122.69 571.123C1122.6 569.548 1121.3 568.299 1119.7 568.299L1115.2 568.298L1115.1 527.499H1119.6C1121.26 527.499 1122.6 526.156 1122.6 524.499V502.299C1122.6 494.271 1116.19 487.699 1108.3 487.699ZM1108.31 493.699L1108.55 493.703C1112.97 493.84 1116.6 497.639 1116.6 502.299V521.499H1114.9C1111.63 521.499 1109.1 524.154 1109.1 527.399L1109.2 568.407L1109.2 568.625C1109.32 571.744 1111.88 574.299 1115 574.299L1116.7 574.298V593.499C1116.7 598.277 1113.16 602.033 1108.79 602.1L863.594 602.599C859.061 602.599 855.3 598.746 855.3 593.999L855.1 502.893C855.1 498.064 858.85 494.199 863.406 494.199L1108.31 493.699Z" fill="white"/>
</svg>
